HIERARCHY
ROOT hip
{
	OFFSET 0.000000 0.000000 0.000000 
	CHANNELS 6 Xposition Yposition Zposition Xrotation Zrotation Yrotation
	JOINT abdomen
	{
		OFFSET 0.000000 3.402643 0.000000 
		CHANNELS 3 Xrotation Zrotation Yrotation
		JOINT chest
		{
			OFFSET 0.000000 8.438565 -0.680529 
			CHANNELS 3 Xrotation Zrotation Yrotation
			JOINT neck
			{
				OFFSET 0.000000 10.207942 -0.272212 
				CHANNELS 3 Xrotation Zrotation Yrotation
				JOINT head
				{
					OFFSET 0.000000 3.130431 0.000000 
					CHANNELS 3 Xrotation Zrotation Yrotation
					End Site
					{
						OFFSET 0.000000 3.130435 0.000000 
					}
				}
			}
			JOINT lCollar
			{
				OFFSET 3.470700 6.669187 -0.816635 
				CHANNELS 3 Yrotation Zrotation Xrotation
				JOINT lShldr
				{
					OFFSET 3.198488 0.000000 0.000000 
					CHANNELS 3 Zrotation Yrotation Xrotation
					JOINT lForeArm
					{
						OFFSET 10.139888 0.000000 0.000000 
						CHANNELS 3 Yrotation Zrotation Xrotation
						JOINT lHand
						{
							OFFSET 8.370511 0.000000 0.000000 
							CHANNELS 3 Zrotation Yrotation Xrotation
							End Site
							{
								OFFSET 4.083176 0.000000 0.000000 
							}
						}
					}
				}
			}
			JOINT rCollar
			{
				OFFSET -3.470700 6.669187 -0.816635 
				CHANNELS 3 Yrotation Zrotation Xrotation
				JOINT rShldr
				{
					OFFSET -3.198488 0.000000 0.000000 
					CHANNELS 3 Zrotation Yrotation Xrotation
					JOINT rForeArm
					{
						OFFSET -10.139888 0.000000 0.000000 
						CHANNELS 3 Yrotation Zrotation Xrotation
						JOINT rHand
						{
							OFFSET -8.370511 0.000000 0.000000 
							CHANNELS 3 Zrotation Yrotation Xrotation
							End Site
							{
								OFFSET -4.083176 0.000000 0.000000 
							}
						}
					}
				}
			}
		}
	}
	JOINT lThigh
	{
		OFFSET 5.308129 -1.633274 1.361059 
		CHANNELS 3 Xrotation Zrotation Yrotation
		JOINT lShin
		{
			OFFSET -2.041588 -20.007561 0.000000 
			CHANNELS 3 Xrotation Zrotation Yrotation
			JOINT lFoot
			{
				OFFSET 0.000000 -19.190928 -1.224953 
				CHANNELS 3 Xrotation Yrotation Zrotation
				End Site
				{
					OFFSET 0.000000 -2.449906 4.627600 
				}
			}
		}
	}
	JOINT rThigh
	{
		OFFSET -5.308129 -1.633274 1.361059 
		CHANNELS 3 Xrotation Zrotation Yrotation
		JOINT rShin
		{
			OFFSET 2.041588 -20.007561 0.000000 
			CHANNELS 3 Xrotation Zrotation Yrotation
			JOINT rFoot
			{
				OFFSET 0.000000 -19.190928 -1.224953 
				CHANNELS 3 Xrotation Yrotation Zrotation
				End Site
				{
					OFFSET 0.000000 -2.449906 4.627600 
				}
			}
		}
	}
}
MOTION
Frames: 20
Frame Time: 0.016667
5.188378 43.262264 -5.902305 -5.933834 2.593470 -16.616842 0.000000 0.000000 0.000000 4.749317 -4.233514 4.218427 20.495930 -2.893853 -1.369104 -9.150067 -1.083445 -16.840996 1.469779 -25.000000 3.066566 -59.465691 1.800385 -4.262617 -4.489942 2.241490 9.363258 -13.152433 -6.559392 -2.372429 -1.658907 21.442003 1.898886 62.412411 -2.720768 -2.619882 6.258203 1.271809 10.247775 14.399836 8.782446 -4.640352 2.929149 -7.039621 2.635314 4.702885 -5.211267 5.824721 -5.450201 7.026389 9.489774 -12.109068 -15.126687 2.396723 25.309549 -1.127039 5.348728 -9.752911 2.541951 9.092085 
5.186647 43.262791 -5.898550 -5.933834 2.593470 -16.587547 0.000000 0.000000 0.000000 4.749376 -4.243246 4.207854 20.486544 -2.912467 -1.324078 -9.140306 -1.073679 -16.879934 1.469779 -25.000000 3.066566 -59.457516 1.811140 -4.281322 -4.491171 2.230775 9.392517 -13.149832 -6.570592 -2.380086 -1.639974 21.433310 1.900053 62.422184 -2.720737 -2.620124 6.268880 1.262761 10.257058 14.413328 8.763224 -4.634392 2.928879 -7.038828 2.625599 4.692308 -5.219779 5.805816 -5.457162 7.022615 9.487930 -12.095881 -15.113153 2.406002 25.320045 -1.126971 5.329615 -9.759183 2.531378 9.087576 
5.186073 43.262989 -5.897278 -5.933834 2.593470 -16.568014 0.000000 0.000000 0.000000 4.759169 -4.243187 4.207131 20.476894 -2.918222 -1.294812 -9.130544 -1.063912 -16.909100 1.490470 -25.000000 3.068429 -59.456722 1.810649 -4.271600 -4.500377 2.230694 9.382598 -13.151186 -6.568897 -2.370563 -1.639974 21.433310 1.900053 62.432732 -2.721218 -2.630089 6.268880 1.262761 10.257058 14.414532 8.753703 -4.634722 2.937255 -7.025021 2.625550 4.692227 -5.219664 5.796066 -5.453561 7.024547 9.488900 -12.095881 -15.113151 2.406002 25.320408 -1.127020 5.319898 -9.751963 2.520617 9.092671 
5.184422 43.263691 -5.893482 -5.933789 2.583757 -16.537710 0.000000 0.000000 0.000000 4.759229 -4.252918 4.216087 20.476721 -2.909074 -1.291400 -9.130544 -1.063912 -16.909100 1.479965 -25.000000 3.067283 -59.450104 1.812630 -4.310241 -4.502147 2.219657 9.421980 -13.136326 -6.589836 -2.385912 -1.635046 21.423803 1.912854 62.442505 -2.721187 -2.630332 6.269274 1.253008 10.257363 14.417162 8.742540 -4.627017 2.948384 -7.029246 2.604321 4.692062 -5.219425 5.776567 -5.456550 7.022944 9.488095 -12.094398 -15.101755 2.405758 25.321199 -1.117491 5.312158 -9.749250 2.502246 9.094630 
5.183869 43.263939 -5.892236 -5.933789 2.583757 -16.527945 0.000000 0.000000 0.000000 4.759229 -4.252918 4.216087 20.466988 -2.911117 -1.281310 -9.120777 -1.063907 -16.899515 1.485412 -25.000000 3.059653 -59.440350 1.822403 -4.309503 -4.502289 2.209580 9.431746 -13.134971 -6.591530 -2.395434 -1.625635 21.424337 1.913570 62.452278 -2.721155 -2.630575 6.269274 1.253008 10.257363 14.418364 8.733019 -4.628835 2.948382 -7.029246 2.604321 4.691980 -5.219306 5.766819 -5.454466 7.020348 9.497625 -12.095013 -15.102434 2.415519 25.331333 -1.117538 5.302722 -9.751139 2.494641 9.101845 
5.182172 43.264618 -5.888412 -5.933789 2.583757 -16.498646 0.000000 0.000000 0.000000 4.759289 -4.262650 4.215279 20.467072 -2.914828 -1.262135 -9.111015 -1.054140 -16.938444 1.474907 -25.000000 3.058508 -59.441135 1.822893 -4.319224 -4.502289 2.209580 9.431746 -13.133724 -6.601036 -2.394689 -1.616117 21.415110 1.914030 62.472607 -2.721604 -2.640782 6.279414 1.243632 10.256695 14.431860 8.713798 -4.622876 2.956459 -7.014611 2.594563 4.684321 -5.212562 5.748345 -5.456396 7.023004 9.488153 -12.092907 -15.090352 2.405517 25.331694 -1.117582 5.293006 -9.749127 2.479467 9.094519 
5.181599 43.264812 -5.887120 -5.924013 2.583803 -16.488441 0.000000 0.000000 0.000000 4.759289 -4.262650 4.215279 20.457375 -2.918727 -1.242458 -9.111022 -1.044380 -16.967424 1.495597 -25.000000 3.060367 -59.431381 1.832665 -4.318486 -4.502431 2.199502 9.441510 -13.122822 -6.609079 -2.392859 -1.616117 21.415110 1.914030 62.472607 -2.721604 -2.640782 6.279414 1.243632 10.256695 14.428887 8.688371 -4.596538 2.956183 -7.013813 2.584848 4.684240 -5.212440 5.738595 -5.454479 7.024044 9.488662 -12.092911 -15.090348 2.405516 25.332050 -1.117631 5.283098 -9.758674 2.481930 9.096277 
5.179929 43.265411 -5.883330 -5.924013 2.583803 -16.449381 0.000000 0.000000 0.000000 4.759350 -4.272382 4.214469 20.447638 -2.920770 -1.232369 -9.101259 -1.034613 -17.006346 1.480035 -25.000000 3.045235 -59.432167 1.833155 -4.328207 -4.512322 2.189024 9.451094 -13.122822 -6.609079 -2.392859 -1.597191 21.406420 1.915212 62.492924 -2.722054 -2.650990 6.290092 1.234583 10.265985 14.434266 8.694755 -4.625033 2.967592 -7.018799 2.573337 4.684077 -5.212205 5.719097 -5.457244 7.018830 9.496898 -12.092911 -15.090346 2.405516 25.341387 -1.127203 5.281591 -9.742350 2.444709 9.099049 
5.179377 43.265598 -5.882091 -5.924013 2.583803 -16.439613 0.000000 0.000000 0.000000 4.759350 -4.272382 4.214469 20.447756 -2.926337 -1.203606 -9.091498 -1.024847 -17.045267 1.500884 -25.000000 3.047308 -59.422394 1.833174 -4.327962 -4.512865 2.188704 9.460840 -13.111918 -6.617123 -2.391028 -1.587782 21.406958 1.915931 62.502701 -2.722022 -2.651233 6.290486 1.224830 10.266294 14.436897 8.683594 -4.617329 2.967316 -7.018003 2.563622 4.684076 -5.212206 5.719097 -5.456348 7.019318 9.497135 -12.085105 -15.082788 2.394367 25.341387 -1.127205 5.281591 -9.756984 2.438610 9.097127 
5.177157 43.264771 -5.879248 -5.933834 2.593470 -16.421530 0.000000 0.000000 0.000000 4.759471 -4.291846 4.222617 20.437843 -2.919229 -1.190111 -9.091504 -1.015087 -17.084009 1.490379 -25.000000 3.046163 -59.423199 1.843418 -4.337190 -4.513007 2.178626 9.470604 -13.110674 -6.626628 -2.389162 -1.578162 21.387966 1.916150 62.523041 -2.732222 -2.660925 6.290486 1.224830 10.266294 14.442160 8.661268 -4.601920 2.976020 -7.024992 2.561708 4.683914 -5.211971 5.699597 -5.452138 7.014897 9.484683 -12.087208 -15.094872 2.404369 25.333145 -1.126274 5.242305 -9.751795 2.447504 9.100850 
5.176420 43.264469 -5.878327 -5.933880 2.603183 -16.412771 0.000000 0.000000 0.000000 4.759532 -4.301579 4.221808 20.438059 -2.930236 -1.183929 -9.081743 -1.005321 -17.103392 1.506010 -25.000000 3.039243 -59.423199 1.843418 -4.337190 -4.513007 2.178626 9.470604 -13.101015 -6.625165 -2.389196 -1.540326 21.370586 1.918550 62.544910 -2.733696 -2.690575 6.290880 1.215078 10.266606 14.447425 8.638944 -4.585042 2.975743 -7.024196 2.551994 4.672127 -5.208923 5.690711 -5.452730 7.025041 9.489088 -12.087206 -15.094870 2.404369 25.333506 -1.126322 5.232588 -9.751698 2.447653 9.100930 
5.174193 43.263599 -5.875562 -5.933926 2.612897 -16.384483 0.000000 0.000000 0.000000 4.769447 -4.320981 4.229219 20.428394 -2.935990 -1.154664 -9.071986 -0.985794 -17.151745 1.495505 -25.000000 3.038099 -59.414230 1.853680 -4.346488 -4.513148 2.168548 9.480367 -13.099771 -6.634671 -2.387330 -1.549836 21.379814 1.918070 62.543358 -2.732671 -2.671132 6.301020 1.205701 10.266158 14.456863 8.632525 -4.596313 2.987627 -7.040388 2.549258 4.683670 -5.211616 5.670350 -5.451899 7.025476 9.489321 -12.088690 -15.106273 2.404611 25.344353 -1.126464 5.203717 -9.748793 2.452562 9.103255 
5.172792 43.263458 -5.874209 -5.933926 2.612897 -16.374716 0.000000 0.000000 0.000000 4.769508 -4.330712 4.228409 20.428432 -2.937846 -1.145077 -9.081758 -0.976040 -17.170788 1.511134 -25.000000 3.025966 -59.414230 1.853680 -4.346488 -4.513690 2.168228 9.490113 -13.099771 -6.634671 -2.387330 -1.512005 21.362434 1.920485 62.565231 -2.734145 -2.700783 6.301558 1.206029 10.275905 14.460924 8.619722 -4.579086 2.997087 -7.038374 2.567717 4.684793 -5.223052 5.650584 -5.452131 7.025334 9.489270 -12.088690 -15.106273 2.404611 25.344353 -1.126465 5.203717 -9.744427 2.441267 9.097371 
5.171010 43.262585 -5.871833 -5.943794 2.632277 -16.357649 0.000000 0.000000 0.000000 4.769632 -4.350176 4.236553 20.408987 -2.943787 -1.115310 -9.072008 -0.946753 -17.218811 1.500792 -25.000000 3.025040 -59.414246 1.863433 -4.345995 -4.523580 2.157748 9.499691 -13.088869 -6.642714 -2.385498 -1.511904 21.352673 1.920246 62.575005 -2.734112 -2.701025 6.301558 1.206029 10.275905 14.460702 8.611842 -4.590427 2.997003 -7.048007 2.557063 4.684714 -5.222929 5.640835 -5.453006 7.024852 9.489044 -12.076988 -15.104136 2.414135 25.345434 -1.126609 5.174566 -9.742908 2.448250 9.089882 
5.170038 43.262390 -5.870803 -5.943794 2.632277 -16.347885 0.000000 0.000000 0.000000 4.769632 -4.350176 4.236553 20.399246 -2.945830 -1.105220 -9.062246 -0.936988 -17.238182 1.495575 -25.000000 3.016047 -59.415035 1.863923 -4.355717 -4.524123 2.157428 9.509435 -13.088869 -6.642714 -2.385498 -1.492994 21.343981 1.921465 62.595322 -2.734560 -2.711233 6.301558 1.206029 10.275905 14.464761 8.599039 -4.571738 3.005417 -7.054194 2.545431 4.672922 -5.219881 5.631948 -5.449544 7.020037 9.476389 -12.076991 -15.104134 2.414135 25.345795 -1.126653 5.164849 -9.752759 2.445863 9.100080 
5.168396 43.261578 -5.868607 -5.943841 2.641990 -16.329361 0.000000 0.000000 0.000000 4.769755 -4.369639 4.234932 20.370024 -2.951957 -1.074951 -9.052494 -0.907701 -17.295958 1.505917 -25.000000 3.016972 -59.404491 1.873205 -4.345258 -4.523722 2.147671 9.509452 -13.087625 -6.652220 -2.383632 -1.483589 21.344519 1.922193 62.605118 -2.744280 -2.710961 6.312235 1.196981 10.285206 14.464540 8.591161 -4.583081 3.005333 -7.063831 2.534776 4.672840 -5.219766 5.622198 -5.449495 7.020063 9.476399 -12.078469 -15.115531 2.414376 25.356285 -1.126747 5.145696 -9.750755 2.449275 9.101682 
5.167513 43.261398 -5.867666 -5.943841 2.641990 -16.319597 0.000000 0.000000 0.000000 4.769818 -4.379372 4.234122 20.360456 -2.963155 -1.068254 -9.052505 -0.888181 -17.314838 1.500700 -25.000000 3.002771 -59.415066 1.883429 -4.354731 -4.524264 2.147350 9.519197 -13.087625 -6.652220 -2.383632 -1.464584 21.326067 1.923188 62.615669 -2.744759 -2.720925 6.312630 1.187229 10.285520 14.465747 8.581641 -4.584900 3.017118 -7.059930 2.543632 4.672759 -5.219650 5.612449 -5.444822 7.018879 9.485414 -12.078467 -15.115533 2.414377 25.356647 -1.126794 5.135979 -9.749846 2.450784 9.102411 
5.166085 43.260708 -5.865771 -5.953663 2.651656 -16.301529 0.000000 0.000000 0.000000 4.769880 -4.389103 4.223545 20.331440 -2.980296 -1.031781 -9.042753 -0.858895 -17.382362 1.505825 -25.000000 2.994701 -59.415871 1.893672 -4.363960 -4.525348 2.146708 9.538687 -13.084912 -6.655609 -2.403808 -1.450493 21.317091 1.914914 62.625446 -2.744727 -2.721168 6.313167 1.187557 10.295262 14.469585 8.560957 -4.579017 3.017036 -7.069574 2.532976 4.671389 -5.207870 5.602965 -5.451576 7.015215 9.484823 -12.075438 -15.131660 2.425533 25.368013 -1.107408 5.120870 -9.745357 2.439710 9.096623 
5.165772 43.260471 -5.865273 -5.953710 2.661369 -16.302538 0.000000 0.000000 0.000000 4.769880 -4.389103 4.213780 20.321728 -2.984195 -1.012100 -9.042763 -0.839375 -17.401239 1.511110 -25.000000 2.981642 -59.425659 1.903407 -4.363711 -4.525890 2.146387 9.548433 -13.083556 -6.657302 -2.413331 -1.426907 21.298876 1.907151 62.645786 -2.754926 -2.730860 6.313167 1.187557 10.295262 14.471012 8.559316 -4.569493 3.017035 -7.069572 2.532976 4.671390 -5.207870 5.602965 -5.451997 7.014979 9.484715 -12.076914 -15.143057 2.425776 25.368011 -1.107407 5.120870 -9.745438 2.439640 9.096546 
5.165737 43.260441 -5.865204 -5.953710 2.661369 -16.302538 0.000000 0.000000 0.000000 4.769880 -4.389103 4.213780 20.282927 -3.001527 -0.975108 -9.042772 -0.819855 -17.468945 1.526736 -25.000000 2.974710 -59.426456 1.913650 -4.372940 -4.527516 2.145423 9.577668 -13.080957 -6.668504 -2.420990 -1.403326 21.280659 1.895856 62.664581 -2.764101 -2.721109 6.323307 1.178181 10.294826 14.484514 8.540093 -4.562085 3.016756 -7.068778 2.523262 4.671389 -5.207874 5.602965 -5.455543 7.019742 9.497355 -12.076914 -15.143054 2.425777 25.368011 -1.107407 5.120870 -9.745436 2.439642 9.096547 
